<svg width="441" height="79" viewBox="0 0 441 79" fill="none" xmlns="http://www.w3.org/2000/svg">
<mask id="mask0_24_240" style="mask-type:alpha" maskUnits="userSpaceOnUse" x="0" y="0" width="144" height="79">
<g clip-path="url(#clip0_24_240)">
<path d="M83.6521 0.0927734C83.5775 5.86392 83.503 11.6323 83.4256 17.4035H35.1747C43.5175 27.8196 51.8604 38.2358 60.2032 48.6519C59.9768 58.0933 59.7531 67.5348 59.5266 76.9762C39.6844 51.6476 19.8422 26.319 0 0.993138C27.884 0.693017 55.7681 0.392895 83.6521 0.0927734Z" fill="white"/>
<path d="M65.8397 22.5743C65.9143 41.3829 65.9888 60.1914 66.0661 79C91.9204 58.242 117.775 37.4868 143.629 16.7289C133.709 16.3544 123.787 15.9799 113.867 15.6055C103.646 24.0722 93.4227 32.5417 83.202 41.0084V22.3486C77.4136 22.4229 71.628 22.4973 65.8397 22.5743Z" fill="white"/>
</g>
</mask>
<g mask="url(#mask0_24_240)">
<rect x="-6.73563" y="-7.94727" width="149.458" height="96.3471" transform="rotate(-0.542763 -6.73563 -7.94727)" fill="url(#paint0_linear_24_240)"/>
</g>
<path d="M183.953 35.2173C181.694 35.2173 179.594 34.8408 177.654 34.0878C175.742 33.3058 174.077 32.2197 172.658 30.8295C171.239 29.4393 170.138 27.8175 169.356 25.9639C168.574 24.0813 168.183 22.025 168.183 19.7949C168.183 17.5648 168.574 15.523 169.356 13.6694C170.138 11.7869 171.239 10.1505 172.658 8.76033C174.106 7.37015 175.786 6.29855 177.697 5.54553C179.609 4.76355 181.694 4.37256 183.953 4.37256C186.096 4.37256 188.095 4.7201 189.948 5.4152C191.831 6.11029 193.438 7.16741 194.771 8.58656L193.38 10.0202C192.077 8.74585 190.629 7.83354 189.036 7.28326C187.472 6.70402 185.807 6.41439 184.04 6.41439C182.1 6.41439 180.289 6.74746 178.61 7.41359C176.959 8.07972 175.511 9.02099 174.265 10.2374C173.049 11.4538 172.093 12.873 171.398 14.4948C170.732 16.1167 170.399 17.8834 170.399 19.7949C170.399 21.7064 170.732 23.4731 171.398 25.095C172.093 26.7169 173.049 28.136 174.265 29.3525C175.511 30.5689 176.959 31.5101 178.61 32.1763C180.289 32.8424 182.1 33.1755 184.04 33.1755C185.807 33.1755 187.472 32.9003 189.036 32.35C190.629 31.7708 192.077 30.8295 193.38 29.5262L194.771 30.9599C193.438 32.379 191.831 33.4506 189.948 34.1747C188.095 34.8698 186.096 35.2173 183.953 35.2173Z" fill="url(#paint1_linear_24_240)"/>
<path d="M196.303 35.0001L210.291 4.58977H212.507L226.496 35.0001H224.106L210.9 5.97996H211.855L198.692 35.0001H196.303ZM201.429 26.4418L202.167 24.5737H220.37L221.109 26.4418H201.429Z" fill="url(#paint2_linear_24_240)"/>
<path d="M232.016 35.0001V4.58977H233.884L248.004 28.9615H247.004L261.08 4.58977H262.905L262.948 35.0001H260.776L260.732 7.93491H261.341L248.004 30.9599H246.917L233.537 7.93491H234.189V35.0001H232.016Z" fill="url(#paint3_linear_24_240)"/>
<path d="M273.551 35.0001V4.58977H286.236C289.509 4.58977 292.072 5.25591 293.925 6.58817C295.779 7.92043 296.706 9.84641 296.706 12.3661C296.706 14.017 296.315 15.4072 295.533 16.5367C294.751 17.6662 293.665 18.5206 292.275 19.0998C290.913 19.6501 289.378 19.9253 287.67 19.9253L288.452 19.0564C290.537 19.0564 292.318 19.3605 293.795 19.9687C295.272 20.5769 296.387 21.4603 297.14 22.6187C297.922 23.7772 298.313 25.2253 298.313 26.9631C298.313 29.5117 297.386 31.4957 295.533 32.9148C293.679 34.305 290.87 35.0001 287.105 35.0001H273.551ZM275.766 33.0886H287.105C290.03 33.0886 292.26 32.5962 293.795 31.6115C295.33 30.5978 296.098 28.9904 296.098 26.7893C296.098 24.6171 295.33 23.0387 293.795 22.054C292.26 21.0403 290.03 20.5335 287.105 20.5335H275.505V18.622H286.149C288.785 18.622 290.826 18.1151 292.275 17.1014C293.723 16.0878 294.447 14.5673 294.447 12.5399C294.447 10.5415 293.723 9.03547 292.275 8.0218C290.826 7.00812 288.785 6.50128 286.149 6.50128H275.766V33.0886Z" fill="url(#paint4_linear_24_240)"/>
<path d="M306.218 35.0001V4.58977H317.122C319.671 4.58977 321.857 4.99525 323.682 5.80619C325.507 6.61713 326.911 7.7901 327.896 9.3251C328.881 10.8311 329.373 12.6702 329.373 14.8424C329.373 16.9566 328.881 18.7813 327.896 20.3162C326.911 21.8223 325.507 22.9953 323.682 23.8352C321.857 24.6461 319.671 25.0516 317.122 25.0516H307.434L308.433 24.0089V35.0001H306.218ZM327.331 35.0001L319.425 23.9655H321.944L329.851 35.0001H327.331ZM308.433 24.1393L307.434 23.0966H317.122C320.395 23.0966 322.871 22.3726 324.551 20.9245C326.26 19.4763 327.114 17.449 327.114 14.8424C327.114 12.2068 326.26 10.1795 324.551 8.76033C322.871 7.31222 320.395 6.58817 317.122 6.58817H307.434L308.433 5.50209V24.1393Z" fill="url(#paint5_linear_24_240)"/>
<path d="M337.485 35.0001V4.58977H339.701V35.0001H337.485Z" fill="url(#paint6_linear_24_240)"/>
<path d="M350.298 35.0001V4.58977H362.331C365.546 4.58977 368.37 5.24142 370.803 6.54472C373.236 7.84802 375.118 9.64368 376.45 11.9317C377.812 14.2197 378.492 16.8408 378.492 19.7949C378.492 22.7491 377.812 25.3702 376.45 27.6582C375.118 29.9462 373.236 31.7418 370.803 33.0451C368.37 34.3484 365.546 35.0001 362.331 35.0001H350.298ZM352.513 33.0017H362.158C365.025 33.0017 367.516 32.4369 369.63 31.3074C371.744 30.1779 373.38 28.6284 374.539 26.659C375.697 24.6606 376.277 22.3726 376.277 19.7949C376.277 17.2173 375.697 14.9438 374.539 12.9743C373.38 10.9759 371.744 9.41198 369.63 8.28246C367.516 7.15293 365.025 6.58817 362.158 6.58817H352.513V33.0017Z" fill="url(#paint7_linear_24_240)"/>
<path d="M399.179 35.2173C396.891 35.2173 394.776 34.8408 392.836 34.0878C390.896 33.3058 389.201 32.2197 387.753 30.8295C386.334 29.4393 385.233 27.8175 384.451 25.9639C383.669 24.0813 383.278 22.025 383.278 19.7949C383.278 17.5648 383.669 15.523 384.451 13.6694C385.233 11.7869 386.348 10.1505 387.797 8.76033C389.245 7.37015 390.924 6.29855 392.836 5.54553C394.776 4.76355 396.905 4.37256 399.222 4.37256C401.423 4.37256 403.465 4.7201 405.348 5.4152C407.23 6.11029 408.838 7.15293 410.17 8.54312L408.78 10.0202C407.447 8.71689 405.985 7.7901 404.392 7.23982C402.828 6.68953 401.119 6.41439 399.266 6.41439C397.296 6.41439 395.472 6.74746 393.792 7.41359C392.112 8.07972 390.649 9.02099 389.404 10.2374C388.159 11.4538 387.188 12.873 386.493 14.4948C385.827 16.1167 385.494 17.8834 385.494 19.7949C385.494 21.7064 385.827 23.4731 386.493 25.095C387.188 26.7169 388.159 28.136 389.404 29.3525C390.649 30.5689 392.112 31.5101 393.792 32.1763C395.472 32.8424 397.296 33.1755 399.266 33.1755C401.061 33.1755 402.756 32.9003 404.348 32.35C405.97 31.7998 407.447 30.8874 408.78 29.6131L410.04 31.3074C408.678 32.6107 407.042 33.5954 405.13 34.2615C403.248 34.8987 401.264 35.2173 399.179 35.2173ZM407.911 31.0902V19.9253H410.04V31.3074L407.911 31.0902Z" fill="url(#paint8_linear_24_240)"/>
<path d="M421.745 18.5785H438.21V20.5335H421.745V18.5785ZM422.005 33.0017H440.773V35.0001H419.79V4.58977H440.121V6.58817H422.005V33.0017Z" fill="url(#paint9_linear_24_240)"/>
<path d="M174.107 70.0001L165.539 50.1403H170.503L177.993 67.7304H175.071L182.675 50.1403H187.242L178.646 70.0001H174.107Z" fill="white"/>
<path d="M209.016 58.1409H218.577V61.7157H209.016V58.1409ZM209.356 66.3118H220.166V70.0001H204.788V50.1403H219.797V53.8285H209.356V66.3118Z" fill="white"/>
<path d="M239.71 70.0001V50.1403H243.512L255.229 64.4393H253.385V50.1403H257.925V70.0001H254.151L242.406 55.701H244.25V70.0001H239.71Z" fill="white"/>
<path d="M282.625 70.0001V53.8853H276.27V50.1403H293.576V53.8853H287.221V70.0001H282.625Z" fill="white"/>
<path d="M320.428 70.3405C317.61 70.3405 315.406 69.5556 313.818 67.9857C312.229 66.4159 311.434 64.1745 311.434 61.2618V50.1403H316.031V61.0915C316.031 62.983 316.418 64.3448 317.194 65.177C317.969 66.0092 319.057 66.4253 320.456 66.4253C321.856 66.4253 322.944 66.0092 323.719 65.177C324.495 64.3448 324.882 62.983 324.882 61.0915V50.1403H329.422V61.2618C329.422 64.1745 328.627 66.4159 327.039 67.9857C325.45 69.5556 323.246 70.3405 320.428 70.3405Z" fill="white"/>
<path d="M349.851 70.0001V50.1403H358.448C360.226 50.1403 361.758 50.4335 363.044 51.0198C364.33 51.5872 365.323 52.41 366.023 53.4881C366.723 54.5662 367.073 55.8523 367.073 57.3466C367.073 58.8219 366.723 60.0986 366.023 61.1767C365.323 62.2358 364.33 63.0492 363.044 63.6166C361.758 64.184 360.226 64.4677 358.448 64.4677H352.405L354.447 62.4534V70.0001H349.851ZM362.477 70.0001L357.512 62.7938H362.42L367.441 70.0001H362.477ZM354.447 62.964L352.405 60.8078H358.192C359.611 60.8078 360.67 60.5052 361.37 59.9C362.07 59.2758 362.42 58.4247 362.42 57.3466C362.42 56.2495 362.07 55.3984 361.37 54.7932C360.67 54.1879 359.611 53.8853 358.192 53.8853H352.405L354.447 51.7007V62.964Z" fill="white"/>
<path d="M390.829 58.1409H400.39V61.7157H390.829V58.1409ZM391.17 66.3118H401.979V70.0001H386.602V50.1403H401.61V53.8285H391.17V66.3118Z" fill="white"/>
<path d="M428.049 70.3405C426.461 70.3405 424.938 70.1325 423.482 69.7164C422.025 69.2813 420.852 68.7234 419.964 68.0425L421.524 64.5812C422.375 65.1864 423.378 65.6877 424.531 66.0849C425.704 66.4631 426.886 66.6523 428.078 66.6523C428.986 66.6523 429.714 66.5672 430.262 66.3969C430.83 66.2078 431.246 65.9525 431.511 65.6309C431.775 65.3094 431.908 64.9406 431.908 64.5245C431.908 63.9949 431.7 63.5787 431.284 63.2761C430.867 62.9546 430.319 62.6992 429.638 62.5101C428.957 62.3021 428.201 62.1129 427.368 61.9427C426.555 61.7535 425.732 61.5266 424.9 61.2618C424.087 60.997 423.34 60.6565 422.659 60.2404C421.978 59.8243 421.42 59.2758 420.985 58.5949C420.569 57.914 420.361 57.0439 420.361 55.9847C420.361 54.8499 420.663 53.8191 421.269 52.8923C421.893 51.9466 422.82 51.1995 424.049 50.651C425.297 50.0835 426.858 49.7998 428.73 49.7998C429.979 49.7998 431.208 49.9511 432.418 50.2538C433.629 50.5375 434.698 50.9725 435.624 51.5588L434.206 55.0485C433.279 54.5189 432.352 54.1312 431.425 53.8853C430.499 53.6205 429.591 53.4881 428.702 53.4881C427.813 53.4881 427.085 53.5921 426.517 53.8002C425.95 54.0082 425.543 54.2825 425.297 54.6229C425.051 54.9445 424.928 55.3228 424.928 55.7578C424.928 56.2685 425.137 56.6846 425.553 57.0061C425.969 57.3087 426.517 57.5546 427.198 57.7438C427.879 57.9329 428.626 58.122 429.439 58.3112C430.272 58.5003 431.094 58.7178 431.908 58.9637C432.74 59.2096 433.497 59.5406 434.177 59.9567C434.858 60.3728 435.407 60.9213 435.823 61.6022C436.258 62.2831 436.476 63.1437 436.476 64.184C436.476 65.2999 436.163 66.3213 435.539 67.2481C434.915 68.1749 433.979 68.922 432.731 69.4894C431.501 70.0568 429.941 70.3405 428.049 70.3405Z" fill="white"/>
<defs>
<linearGradient id="paint0_linear_24_240" x1="8.13397" y1="17.4671" x2="109.885" y2="40.0671" gradientUnits="userSpaceOnUse">
<stop stop-color="#B67D43"/>
<stop offset="1" stop-color="#E6C16A"/>
</linearGradient>
<linearGradient id="paint1_linear_24_240" x1="177.11" y1="19.5107" x2="427.355" y2="28.177" gradientUnits="userSpaceOnUse">
<stop stop-color="#C28E4D"/>
<stop offset="1" stop-color="#AA6C39"/>
</linearGradient>
<linearGradient id="paint2_linear_24_240" x1="177.11" y1="19.5107" x2="427.355" y2="28.177" gradientUnits="userSpaceOnUse">
<stop stop-color="#C28E4D"/>
<stop offset="1" stop-color="#AA6C39"/>
</linearGradient>
<linearGradient id="paint3_linear_24_240" x1="177.11" y1="19.5107" x2="427.355" y2="28.177" gradientUnits="userSpaceOnUse">
<stop stop-color="#C28E4D"/>
<stop offset="1" stop-color="#AA6C39"/>
</linearGradient>
<linearGradient id="paint4_linear_24_240" x1="177.11" y1="19.5107" x2="427.355" y2="28.177" gradientUnits="userSpaceOnUse">
<stop stop-color="#C28E4D"/>
<stop offset="1" stop-color="#AA6C39"/>
</linearGradient>
<linearGradient id="paint5_linear_24_240" x1="177.11" y1="19.5107" x2="427.355" y2="28.177" gradientUnits="userSpaceOnUse">
<stop stop-color="#C28E4D"/>
<stop offset="1" stop-color="#AA6C39"/>
</linearGradient>
<linearGradient id="paint6_linear_24_240" x1="177.11" y1="19.5107" x2="427.355" y2="28.177" gradientUnits="userSpaceOnUse">
<stop stop-color="#C28E4D"/>
<stop offset="1" stop-color="#AA6C39"/>
</linearGradient>
<linearGradient id="paint7_linear_24_240" x1="177.11" y1="19.5107" x2="427.355" y2="28.177" gradientUnits="userSpaceOnUse">
<stop stop-color="#C28E4D"/>
<stop offset="1" stop-color="#AA6C39"/>
</linearGradient>
<linearGradient id="paint8_linear_24_240" x1="177.11" y1="19.5107" x2="427.355" y2="28.177" gradientUnits="userSpaceOnUse">
<stop stop-color="#C28E4D"/>
<stop offset="1" stop-color="#AA6C39"/>
</linearGradient>
<linearGradient id="paint9_linear_24_240" x1="177.11" y1="19.5107" x2="427.355" y2="28.177" gradientUnits="userSpaceOnUse">
<stop stop-color="#C28E4D"/>
<stop offset="1" stop-color="#AA6C39"/>
</linearGradient>
<clipPath id="clip0_24_240">
<rect width="143.629" height="78.9072" fill="white" transform="translate(0 0.0927734)"/>
</clipPath>
</defs>
</svg>
