<svg width="305" height="58" viewBox="0 0 305 58" fill="none" xmlns="http://www.w3.org/2000/svg">
<mask id="mask0_4_3" style="mask-type:alpha" maskUnits="userSpaceOnUse" x="0" y="4" width="96" height="54">
<g clip-path="url(#clip0_4_3)">
<path d="M55.7627 4.72806C55.713 8.57512 55.6633 12.4203 55.6118 16.2674H23.4475C29.0089 23.2108 34.5703 30.1543 40.1316 37.0977C39.9807 43.3914 39.8316 49.6851 39.6806 55.9788C26.4537 39.0947 13.2269 22.2105 0 5.32824C18.5876 5.12818 37.1751 4.92812 55.7627 4.72806Z" fill="white"/>
<path d="M43.8889 19.7144C43.9386 32.2522 43.9883 44.79 44.0399 57.3278C61.2744 43.4905 78.5089 29.655 95.7434 15.8177C89.1309 15.5681 82.5165 15.3185 75.904 15.0689C69.0908 20.7128 62.2758 26.3586 55.4627 32.0026V19.5638C51.6041 19.6134 47.7474 19.663 43.8889 19.7144Z" fill="white"/>
</g>
</mask>
<g mask="url(#mask0_4_3)">
<rect x="-4.48999" y="-0.631683" width="99.6294" height="64.2252" transform="rotate(-0.542763 -4.48999 -0.631683)" fill="url(#paint0_linear_4_3)"/>
</g>
<path d="M122.624 28.1448C121.118 28.1448 119.718 27.8938 118.425 27.3919C117.15 26.8706 116.04 26.1466 115.094 25.2199C114.148 24.2932 113.415 23.212 112.893 21.9764C112.372 20.7215 112.111 19.3508 112.111 17.8642C112.111 16.3776 112.372 15.0165 112.893 13.7809C113.415 12.526 114.148 11.4352 115.094 10.5085C116.06 9.58181 117.179 8.86748 118.453 8.36552C119.728 7.84425 121.118 7.58361 122.624 7.58361C124.052 7.58361 125.384 7.81529 126.62 8.27864C127.875 8.74199 128.946 9.44667 129.835 10.3927L128.908 11.3483C128.039 10.4989 127.074 9.89071 126.012 9.52389C124.969 9.13777 123.859 8.9447 122.682 8.9447C121.388 8.9447 120.181 9.16673 119.062 9.61077C117.961 10.0548 116.996 10.6823 116.166 11.4931C115.355 12.304 114.718 13.25 114.254 14.3312C113.81 15.4123 113.588 16.59 113.588 17.8642C113.588 19.1384 113.81 20.3161 114.254 21.3973C114.718 22.4784 115.355 23.4244 116.166 24.2353C116.996 25.0461 117.961 25.6736 119.062 26.1176C120.181 26.5617 121.388 26.7837 122.682 26.7837C123.859 26.7837 124.969 26.6003 126.012 26.2335C127.074 25.8474 128.039 25.2199 128.908 24.3511L129.835 25.3068C128.946 26.2528 127.875 26.9671 126.62 27.4498C125.384 27.9131 124.052 28.1448 122.624 28.1448ZM130.856 28L140.181 7.72841H141.658L150.983 28H149.39L140.586 8.65511H141.223L132.449 28H130.856ZM134.273 22.295L134.765 21.0497H146.899L147.392 22.295H134.273ZM154.663 28V7.72841H155.908L165.32 23.9746H164.654L174.037 7.72841H175.253L175.282 28H173.834L173.805 9.95828H174.21L165.32 25.3068H164.596L155.676 9.95828H156.111V28H154.663ZM182.35 28V7.72841H190.806C192.987 7.72841 194.696 8.17245 195.931 9.06054C197.167 9.94863 197.785 11.2325 197.785 12.9121C197.785 14.0126 197.524 14.9393 197.003 15.6922C196.482 16.4452 195.758 17.0147 194.831 17.4009C193.924 17.7677 192.9 17.9511 191.761 17.9511L192.283 17.3719C193.673 17.3719 194.86 17.5746 195.845 17.98C196.829 18.3855 197.573 18.9743 198.074 19.7466C198.596 20.5188 198.856 21.4841 198.856 22.6425C198.856 24.3415 198.239 25.6639 197.003 26.6099C195.767 27.5366 193.895 28 191.385 28H182.35ZM183.826 26.7258H191.385C193.335 26.7258 194.821 26.3976 195.845 25.7412C196.868 25.0654 197.379 23.9939 197.379 22.5267C197.379 21.0787 196.868 20.0265 195.845 19.3701C194.821 18.6944 193.335 18.3565 191.385 18.3565H183.653V17.0823H190.748C192.505 17.0823 193.866 16.7444 194.831 16.0687C195.796 15.393 196.279 14.3794 196.279 13.028C196.279 11.6958 195.796 10.6919 194.831 10.0162C193.866 9.34048 192.505 9.00262 190.748 9.00262H183.826V26.7258ZM204.126 28V7.72841H211.394C213.093 7.72841 214.551 7.9987 215.767 8.53927C216.984 9.07985 217.92 9.86175 218.576 10.885C219.233 11.8889 219.561 13.1149 219.561 14.5628C219.561 15.9722 219.233 17.1885 218.576 18.2117C217.92 19.2156 216.984 19.9975 215.767 20.5574C214.551 21.098 213.093 21.3683 211.394 21.3683H204.936L205.603 20.6733V28H204.126ZM218.2 28L212.929 20.6443H214.609L219.88 28H218.2ZM205.603 20.7601L204.936 20.0651H211.394C213.576 20.0651 215.227 19.5825 216.346 18.6171C217.486 17.6518 218.055 16.3004 218.055 14.5628C218.055 12.806 217.486 11.4545 216.346 10.5085C215.227 9.5432 213.576 9.06054 211.394 9.06054H204.936L205.603 8.33656V20.7601ZM224.968 28V7.72841H226.445V28H224.968ZM233.509 28V7.72841H241.531C243.674 7.72841 245.556 8.1628 247.178 9.03158C248.8 9.90037 250.055 11.0974 250.943 12.6226C251.85 14.1477 252.304 15.895 252.304 17.8642C252.304 19.8334 251.85 21.5807 250.943 23.1059C250.055 24.6311 248.8 25.828 247.178 26.6968C245.556 27.5656 243.674 28 241.531 28H233.509ZM234.986 26.6679H241.415C243.326 26.6679 244.987 26.2914 246.396 25.5384C247.806 24.7855 248.896 23.7526 249.669 22.4398C250.441 21.1077 250.827 19.5825 250.827 17.8642C250.827 16.1459 250.441 14.6304 249.669 13.3176C248.896 11.9854 247.806 10.9429 246.396 10.19C244.987 9.43701 243.326 9.06054 241.415 9.06054H234.986V26.6679ZM266.094 28.1448C264.568 28.1448 263.159 27.8938 261.865 27.3919C260.572 26.8706 259.443 26.1466 258.477 25.2199C257.531 24.2932 256.798 23.212 256.276 21.9764C255.755 20.7215 255.494 19.3508 255.494 17.8642C255.494 16.3776 255.755 15.0165 256.276 13.7809C256.798 12.526 257.541 11.4352 258.506 10.5085C259.472 9.58181 260.591 8.86748 261.865 8.36552C263.159 7.84425 264.578 7.58361 266.123 7.58361C267.59 7.58361 268.951 7.81529 270.206 8.27864C271.461 8.74199 272.532 9.43702 273.42 10.3637L272.494 11.3483C271.606 10.4796 270.631 9.86175 269.569 9.49493C268.526 9.12811 267.387 8.9447 266.151 8.9447C264.839 8.9447 263.622 9.16673 262.503 9.61077C261.383 10.0548 260.408 10.6823 259.578 11.4931C258.748 12.304 258.101 13.25 257.637 14.3312C257.193 15.4123 256.971 16.59 256.971 17.8642C256.971 19.1384 257.193 20.3161 257.637 21.3973C258.101 22.4784 258.748 23.4244 259.578 24.2353C260.408 25.0461 261.383 25.6736 262.503 26.1176C263.622 26.5617 264.839 26.7837 266.151 26.7837C267.348 26.7837 268.478 26.6003 269.54 26.2335C270.621 25.8667 271.606 25.2585 272.494 24.409L273.333 25.5384C272.426 26.4072 271.335 27.0636 270.061 27.5077C268.806 27.9324 267.484 28.1448 266.094 28.1448ZM271.914 25.3937V17.9511H273.333V25.5384L271.914 25.3937ZM281.136 17.0533H292.112V18.3565H281.136V17.0533ZM281.31 26.6679H293.82V28H279.833V7.72841H293.386V9.06054H281.31V26.6679Z" fill="url(#paint1_linear_4_3)"/>
<path d="M116.06 51L110.348 37.7614H113.658L118.651 49.487H116.703L121.771 37.7614H124.816L119.086 51H116.06ZM139.33 43.0947H145.704V45.4776H139.33V43.0947ZM139.557 48.5414H146.763V51H136.512V37.7614H146.517V40.22H139.557V48.5414ZM159.792 51V37.7614H162.326L170.137 47.2932H168.907V37.7614H171.933V51H169.418L161.588 41.4682H162.818V51H159.792ZM188.399 51V40.2578H184.162V37.7614H195.699V40.2578H191.462V51H188.399ZM213.598 51.2269C211.72 51.2269 210.251 50.7037 209.192 49.6572C208.133 48.6107 207.603 47.1167 207.603 45.175V37.7614H210.667V45.0615C210.667 46.3224 210.925 47.2302 211.442 47.7849C211.959 48.3397 212.684 48.6171 213.617 48.6171C214.55 48.6171 215.275 48.3397 215.792 47.7849C216.309 47.2302 216.567 46.3224 216.567 45.0615V37.7614H219.593V45.175C219.593 47.1167 219.064 48.6107 218.005 49.6572C216.946 50.7037 215.477 51.2269 213.598 51.2269ZM233.212 51V37.7614H238.942C240.127 37.7614 241.149 37.9568 242.006 38.3477C242.863 38.7259 243.525 39.2744 243.992 39.9931C244.458 40.7117 244.692 41.5691 244.692 42.5651C244.692 43.5486 244.458 44.3996 243.992 45.1183C243.525 45.8243 242.863 46.3665 242.006 46.7447C241.149 47.123 240.127 47.3121 238.942 47.3121H234.914L236.276 45.9693V51H233.212ZM241.628 51L238.318 46.1963H241.59L244.937 51H241.628ZM236.276 46.3098L234.914 44.8724H238.772C239.718 44.8724 240.424 44.6707 240.89 44.2672C241.357 43.8512 241.59 43.2838 241.59 42.5651C241.59 41.8339 241.357 41.2665 240.89 40.863C240.424 40.4596 239.718 40.2578 238.772 40.2578H234.914L236.276 38.8016V46.3098ZM260.528 43.0947H266.901V45.4776H260.528V43.0947ZM260.755 48.5414H267.96V51H257.71V37.7614H267.714V40.22H260.755V48.5414ZM285.339 51.2269C284.28 51.2269 283.265 51.0883 282.294 50.8109C281.323 50.5209 280.541 50.1489 279.949 49.6951L280.989 47.3878C281.556 47.7912 282.225 48.1253 282.994 48.3901C283.775 48.6423 284.563 48.7684 285.358 48.7684C285.963 48.7684 286.448 48.7116 286.814 48.5981C287.192 48.4721 287.47 48.3018 287.646 48.0875C287.823 47.8732 287.911 47.6273 287.911 47.3499C287.911 46.9969 287.772 46.7195 287.495 46.5178C287.217 46.3035 286.852 46.1332 286.398 46.0072C285.944 45.8685 285.44 45.7424 284.885 45.6289C284.343 45.5028 283.794 45.3515 283.24 45.175C282.697 44.9985 282.199 44.7716 281.745 44.4942C281.292 44.2168 280.92 43.8512 280.63 43.3973C280.352 42.9434 280.214 42.3634 280.214 41.6573C280.214 40.9008 280.415 40.2137 280.819 39.5959C281.235 38.9655 281.853 38.4675 282.672 38.1018C283.504 37.7236 284.544 37.5345 285.793 37.5345C286.625 37.5345 287.444 37.6353 288.251 37.8371C289.058 38.0262 289.771 38.3162 290.388 38.707L289.443 41.0332C288.825 40.6802 288.207 40.4217 287.589 40.2578C286.972 40.0813 286.366 39.9931 285.774 39.9931C285.181 39.9931 284.696 40.0624 284.318 40.2011C283.939 40.3398 283.668 40.5226 283.504 40.7495C283.34 40.9639 283.258 41.2161 283.258 41.506C283.258 41.8465 283.397 42.1238 283.674 42.3382C283.952 42.5399 284.318 42.7038 284.771 42.8299C285.225 42.956 285.723 43.0821 286.265 43.2081C286.82 43.3342 287.369 43.4792 287.911 43.6431C288.466 43.807 288.97 44.0277 289.424 44.3051C289.878 44.5824 290.243 44.9481 290.521 45.402C290.811 45.8559 290.956 46.4295 290.956 47.123C290.956 47.8669 290.748 48.5477 290.332 49.1655C289.916 49.7833 289.291 50.2813 288.459 50.6596C287.64 51.0378 286.6 51.2269 285.339 51.2269Z" fill="white"/>
<defs>
<linearGradient id="paint0_linear_4_3" x1="5.42212" y1="16.3096" x2="73.2494" y2="31.3748" gradientUnits="userSpaceOnUse">
<stop stop-color="#B67D43"/>
<stop offset="1" stop-color="#E6C16A"/>
</linearGradient>
<linearGradient id="paint1_linear_4_3" x1="118.675" y1="12.8507" x2="295.127" y2="17.9246" gradientUnits="userSpaceOnUse">
<stop stop-color="#C28E4D"/>
<stop offset="1" stop-color="#AA6C39"/>
</linearGradient>
<clipPath id="clip0_4_3">
<rect width="95.7434" height="52.5998" fill="white" transform="translate(0 4.72806)"/>
</clipPath>
</defs>
</svg>
